<svg xmlns="http://www.w3.org/2000/svg">

    <symbol id="logout" viewBox="0 0 20 20" fill="none">
        <path d="M18.1601 10.1006H8.12598" stroke="white" stroke-width="1.5" stroke-linecap="round"
              stroke-linejoin="round"/>
        <path d="M15.7212 7.67059L18.1612 10.1006L15.7212 12.5306" stroke="white" stroke-width="1.5"
              stroke-linecap="round" stroke-linejoin="round"/>
        <path d="M13.6342 6.35826C13.3592 3.37493 12.2425 2.2916 7.80082 2.2916C1.88332 2.2916 1.88332 4.2166 1.88332 9.99993C1.88332 15.7833 1.88332 17.7083 7.80082 17.7083C12.2425 17.7083 13.3592 16.6249 13.6342 13.6416"
              stroke="white" stroke-width="1.5" stroke-linecap="round" stroke-linejoin="round"/>
    </symbol>

    <symbol viewBox="0 0 7 10" id="arrow-dropdown" fill="none">
        <path d="M1.14228 0.945805C0.909014 0.730097 0.908201 0.379612 1.14046 0.162973C1.35161 -0.0339699 1.68269 -0.0524979 1.9164 0.107825L1.98337 0.161288L6.79132 4.60737C7.00401 4.80406 7.02336 5.11265 6.84935 5.32969L6.79135 5.39186L1.9834 9.83868C1.75016 10.0544 1.37278 10.0537 1.1405 9.83706C0.929333 9.64013 0.910782 9.33257 1.08439 9.1162L1.14224 9.05423L5.52584 4.99941L1.14228 0.945805Z"
              fill="currentColor"/>
    </symbol>

    <symbol viewBox="0 0 20 20" id="lupa" fill="none">
        <path d="M14.5726 16.0029C10.5755 19.1865 4.988 18.3056 2.02842 14.6542C-0.828088 11.129 -0.64944 6.04347 2.44943 2.82482C5.65137 -0.500594 10.6854 -0.944524 14.3346 1.78337C15.642 2.76051 16.6183 4.00364 17.2542 5.50838C17.8938 7.02186 18.0881 8.59654 17.8663 10.2205C17.6452 11.837 17 13.2775 15.9499 14.6217C16.0349 14.6773 16.1255 14.7173 16.1904 14.7822C17.3448 15.9311 18.4947 17.0843 19.6491 18.2331C19.9227 18.5054 20.0589 18.8225 19.9776 19.2047C19.8165 19.9651 18.9107 20.2586 18.3298 19.7366C18.0575 19.4925 17.807 19.2234 17.5484 18.9649C16.6002 18.0177 15.6526 17.0699 14.7044 16.1227C14.665 16.0853 14.6238 16.0503 14.5726 16.0029ZM15.9605 8.98677C15.9705 5.12689 12.8529 2.00627 8.98261 2.00065C5.12292 1.99503 2.00781 5.09068 1.99094 8.94806C1.97408 12.8173 5.08544 15.9467 8.96762 15.9648C12.8117 15.9829 15.9505 12.8504 15.9605 8.98677Z"
              fill="currentColor"/>
    </symbol>

    <symbol viewBox="0 0 24 24" id="vector" fill="none">
        <path d="M17.1567 20.25H9.89163C6.79003 20.25 4.26667 17.7267 4.26667 14.6251V8.85947C4.26667 5.9762 2.82958 3.30739 0.422521 1.72031C-0.00975775 1.43531 -0.129101 0.853876 0.155897 0.421598C0.440896 -0.0107278 1.02228 -0.130118 1.45465 0.154974C2.82874 1.06097 3.94351 2.2559 4.74067 3.63167C4.91293 3.82466 6.30202 5.29699 8.57919 5.29699H19.3748C22.3201 5.24191 24.6254 8.19769 23.8554 11.0406L22.6126 15.9939C21.9839 18.4998 19.7404 20.25 17.1567 20.25ZM5.90513 6.64234C6.06099 7.36238 6.14166 8.10483 6.14166 8.85947V14.6251C6.14166 16.6928 7.8239 18.375 9.89163 18.375H17.1567C18.8792 18.375 20.3748 17.2082 20.794 15.5376L22.0367 10.5844C22.4943 8.89509 21.1243 7.13931 19.3748 7.17198H8.57914C7.54926 7.17198 6.65283 6.94993 5.90513 6.64234ZM9.42289 22.8281C9.42289 22.1809 8.89822 21.6563 8.25102 21.6563C6.69609 21.7182 6.69745 23.9387 8.25102 24C8.89822 24 9.42289 23.4753 9.42289 22.8281ZM18.751 22.8281C18.751 22.1809 18.2263 21.6563 17.5791 21.6563C16.0242 21.7182 16.0255 23.9387 17.5791 24C18.2263 24 18.751 23.4753 18.751 22.8281ZM20.3123 9.98446C20.3123 9.46668 19.8925 9.04697 19.3748 9.04697H8.95414C7.71027 9.09647 7.71121 10.8729 8.95414 10.922H19.3748C19.8925 10.922 20.3123 10.5022 20.3123 9.98446Z"
              fill="currentColor"/>
    </symbol>

    <symbol viewBox="0 0 16 16" id="arrow-down" fill="none">
        <path d="M12.6667 5.66669L8.00004 10.3334L3.33337 5.66669" stroke="#3D3D3D" stroke-width="1.5" stroke-linecap="round" stroke-linejoin="round"/>
    </symbol>

    <symbol  viewBox="0 0 20 20" id="shopping-basket" fill="none">
        <g clip-path="url(#clip0_2_1949)">
            <path d="M14.294 16.8745H8.24077C5.65655 16.8745 3.55412 14.7721 3.55412 12.1879V7.38405C3.55412 4.98175 2.35676 2.75813 0.351225 1.4358C-0.00894369 1.19834 -0.108379 0.713895 0.129078 0.353726C0.366535 -0.00648163 0.850939 -0.105956 1.21119 0.131579C2.35606 0.886442 3.28487 1.88204 3.94905 3.02832C4.09258 3.18911 5.24995 4.41584 7.14726 4.41584H16.142C18.596 4.36995 20.5168 6.83267 19.8752 9.20138L18.8397 13.3284C18.3159 15.4163 16.4466 16.8745 14.294 16.8745ZM4.91926 5.53677C5.04912 6.1367 5.11634 6.7553 5.11634 7.38405V12.1879C5.11634 13.9107 6.51796 15.3123 8.24077 15.3123H14.294C15.7291 15.3123 16.9752 14.3401 17.3245 12.9482L18.3599 8.82121C18.7412 7.41373 17.5997 5.95084 16.142 5.97806H7.14722C6.28913 5.97806 5.54224 5.79305 4.91926 5.53677ZM7.85021 19.0226C7.85021 18.4833 7.41307 18.0462 6.87383 18.0462C5.57828 18.0978 5.57942 19.9479 6.87383 19.999C7.41307 19.999 7.85021 19.5618 7.85021 19.0226ZM15.6222 19.0226C15.6222 18.4833 15.1851 18.0462 14.6459 18.0462C13.3503 18.0978 13.3514 19.9479 14.6459 19.999C15.1851 19.999 15.6222 19.5618 15.6222 19.0226ZM16.9231 8.32138C16.9231 7.88998 16.5734 7.54027 16.142 7.54027H7.45966C6.42329 7.58152 6.42407 9.0616 7.45966 9.10249H16.142C16.5734 9.10249 16.9231 8.75279 16.9231 8.32138Z"
                  fill="currentColor"/>
        </g>
        <defs>
            <clipPath id="clip0_2_1949">
                <rect width="20" height="20" fill="white"/>
            </clipPath>
        </defs>
    </symbol>

    <symbol viewBox="0 0 20 20" id="heart" fill="none">
        <path d="M10 18.8873C9.71527 18.8873 9.44077 18.7842 9.22684 18.5968C8.41888 17.8903 7.63992 17.2264 6.95267 16.6408L6.94916 16.6377C4.93423 14.9207 3.19427 13.4378 1.98364 11.9771C0.630341 10.3441 0 8.79578 0 7.10434C0 5.46097 0.563507 3.94485 1.58661 2.83508C2.62192 1.71219 4.04251 1.09375 5.58716 1.09375C6.74164 1.09375 7.79892 1.45874 8.72955 2.1785C9.19922 2.54181 9.62494 2.98645 10 3.5051C10.3752 2.98645 10.8008 2.54181 11.2706 2.1785C12.2012 1.45874 13.2585 1.09375 14.413 1.09375C15.9575 1.09375 17.3782 1.71219 18.4135 2.83508C19.4366 3.94485 20 5.46097 20 7.10434C20 8.79578 19.3698 10.3441 18.0165 11.9769C16.8059 13.4378 15.0661 14.9205 13.0515 16.6374C12.363 17.224 11.5828 17.8889 10.773 18.5971C10.5592 18.7842 10.2846 18.8873 10 18.8873ZM5.58716 2.26532C4.37363 2.26532 3.25882 2.74963 2.44781 3.62915C1.62476 4.52194 1.17142 5.75607 1.17142 7.10434C1.17142 8.52692 1.70013 9.79919 2.88559 11.2296C4.03137 12.6122 5.73563 14.0645 7.70889 15.7462L7.71255 15.7492C8.4024 16.3371 9.18442 17.0036 9.99832 17.7153C10.8171 17.0023 11.6003 16.3347 12.2916 15.7458C14.2647 14.0642 15.9688 12.6122 17.1146 11.2296C18.2999 9.79919 18.8286 8.52692 18.8286 7.10434C18.8286 5.75607 18.3752 4.52194 17.5522 3.62915C16.7413 2.74963 15.6264 2.26532 14.413 2.26532C13.524 2.26532 12.7078 2.54791 11.9872 3.10516C11.3449 3.60199 10.8975 4.23004 10.6352 4.66949C10.5003 4.89548 10.2629 5.03036 10 5.03036C9.73709 5.03036 9.49966 4.89548 9.36478 4.66949C9.10263 4.23004 8.65524 3.60199 8.01285 3.10516C7.29218 2.54791 6.47598 2.26532 5.58716 2.26532Z"
              fill="currentColor"/>
    </symbol>

    <symbol viewBox="0 0 20 20" id="frame" fill="none">
        <g clip-path="url(#clip0_2_1953)">
            <path d="M14.5656 16.0023C10.5704 19.1859 4.98549 18.3049 2.02729 14.6536C-0.827886 11.1285 -0.64932 6.04314 2.44811 2.82458C5.64856 -0.50074 10.6802 -0.944658 14.3277 1.78316C15.6345 2.76027 16.6104 4.00337 17.246 5.50807C17.8853 7.02151 18.0795 8.59614 17.8578 10.2201C17.6368 11.8365 16.9918 13.2769 15.9423 14.6212C16.0272 14.6767 16.1178 14.7167 16.1827 14.7816C17.3365 15.9305 18.4859 17.0836 19.6397 18.2325C19.9132 18.5047 20.0493 18.8218 19.9682 19.204C19.8071 19.9644 18.9018 20.2579 18.3211 19.7359C18.0489 19.4918 17.7985 19.2227 17.54 18.9642C16.5923 18.0171 15.6451 17.0693 14.6973 16.1221C14.658 16.0847 14.6168 16.0497 14.5656 16.0023ZM15.9529 8.98636C15.9629 5.12659 12.8468 2.00605 8.97825 2.00043C5.12035 1.99481 2.00669 5.09037 1.98983 8.94765C1.97297 12.8168 5.08289 15.9461 8.96326 15.9642C12.8055 15.9823 15.9429 12.8499 15.9529 8.98636Z"
                  fill="currentColor"/>
        </g>
        <defs>
            <clipPath id="clip0_2_1953">
                <rect width="19.9913" height="20" fill="white"/>
            </clipPath>
        </defs>
    </symbol>

    <symbol viewBox="0 0 80 29" id="sale" fill="none">
        <rect width="80" height="29" fill="#46A358"/>
        <path d="M13.048 9.44L9.384 10.64L9.8 12.128L11.944 11.44V20H13.64V9.44H13.048ZM23.1384 16.608C23.1384 15.696 22.8664 14.96 22.3224 14.4C21.7784 13.84 21.1224 13.488 20.3384 13.36L22.8984 9.904V9.44H16.3224V10.992H20.2584L17.7944 14.304V14.768H18.9624C20.5144 14.768 21.3944 15.424 21.3944 16.624C21.3944 17.824 20.4984 18.624 19.2344 18.624C18.1464 18.624 17.3944 18.032 16.7544 17.056L15.5704 17.888C16.2744 19.248 17.5704 20.176 19.2824 20.176C21.3624 20.176 23.1384 18.752 23.1384 16.608ZM24.7416 11.856C24.7416 13.328 25.9416 14.464 27.4296 14.464C28.8696 14.464 30.0856 13.328 30.0856 11.856C30.0856 10.416 28.8696 9.264 27.4296 9.264C25.9416 9.264 24.7416 10.416 24.7416 11.856ZM26.8536 20H28.2616L34.3256 9.44H32.9016L26.8536 20ZM28.7576 11.856C28.7576 12.672 28.1816 13.264 27.4296 13.264C26.6456 13.264 26.1016 12.672 26.1016 11.856C26.1016 11.04 26.6616 10.448 27.4296 10.448C28.1816 10.448 28.7576 11.072 28.7576 11.856ZM31.0776 17.568C31.0776 19.008 32.2616 20.16 33.7336 20.16C35.1896 20.16 36.4056 19.008 36.4056 17.568C36.4056 16.096 35.2056 14.96 33.7336 14.96C32.2616 14.96 31.0776 16.096 31.0776 17.568ZM35.0616 17.568C35.0616 18.352 34.5016 18.96 33.7496 18.96C32.9656 18.96 32.4216 18.384 32.4216 17.568C32.4216 16.736 32.9656 16.16 33.7496 16.16C34.5016 16.16 35.0616 16.752 35.0616 17.568ZM42.5474 14.72C42.4834 17.744 45.0594 20.224 48.0834 20.176C51.0754 20.224 53.6994 17.744 53.6354 14.72C53.6994 11.696 51.0754 9.216 48.0834 9.264C45.0754 9.216 42.4994 11.696 42.5474 14.72ZM51.8914 14.704C51.8914 16.96 50.2594 18.624 48.0994 18.624C45.9074 18.624 44.3074 16.96 44.3074 14.704C44.3074 12.48 45.9074 10.816 48.0994 10.816C50.2594 10.816 51.8914 12.496 51.8914 14.704ZM55.6718 20H57.3678V15.648H61.5598V14.112H57.3678V10.96H62.4558V9.44H55.6718V20ZM64.1405 20H65.8365V15.648H70.0285V14.112H65.8365V10.96H70.9245V9.44H64.1405V20Z"
              fill="white"/>
    </symbol>

    <symbol viewBox="0 0 8 12" id="arrow-right" fill="none">
        <path d="M1.375 0.75C1.375 0.75 6.625 3.858 6.625 6C6.625 8.14125 1.375 11.25 1.375 11.25" stroke="currentColor"
              stroke-width="1.5" stroke-linecap="round" stroke-linejoin="round"/>
    </symbol>

    <symbol viewBox="0 0 14 12" id="arrow-flex" fill="none">
        <path d="M12.8126 5.79428L1.56258 5.79428" stroke="white" stroke-width="1.5" stroke-linecap="round"
              stroke-linejoin="round"/>
        <path d="M8.27485 1.2759C8.27485 1.2759 12.8123 3.72165 12.8123 5.79315C12.8123 7.86615 8.27485 10.3127 8.27485 10.3127"
              stroke="white" stroke-width="1.5" stroke-linecap="round" stroke-linejoin="round"/>
    </symbol>

    <symbol viewBox="0 0 12 10" id="arrow-black" fill="none">
        <path d="M0.666672 4.81714C0.666672 4.56401 0.854774 4.35481 1.09882 4.3217L1.16667 4.31714L11.1667 4.31714C11.4428 4.31714 11.6667 4.541 11.6667 4.81714C11.6667 5.07027 11.4786 5.27947 11.2345 5.31257L11.1667 5.31714L1.16667 5.31714C0.890529 5.31714 0.666672 5.09328 0.666672 4.81714Z"
              fill="currentColor"/>
        <path d="M6.78068 1.15517C6.585 0.960332 6.58431 0.64375 6.77915 0.448069C6.95628 0.270176 7.23402 0.25344 7.43008 0.398254L7.48626 0.446546L11.5196 4.46255C11.698 4.6402 11.7142 4.91895 11.5683 5.11499L11.5196 5.17114L7.48629 9.18781C7.29062 9.38267 6.97404 9.38201 6.77918 9.18635C6.60204 9.00847 6.58648 8.73066 6.73212 8.53522L6.78065 8.47924L10.458 4.81666L6.78068 1.15517Z"
              fill="currentColor"/>
    </symbol>

    <symbol viewBox="0 0 150 35" id="main-logo" fill="none">
        <g clip-path="url(#clip0_1_1069)">
            <path d="M17.15 0C7.67748 0 0 7.67746 0 17.15C0 26.0201 6.73548 33.3175 15.3711 34.207C14.8496 29.9134 15.0436 26.4001 15.7067 23.5135C15.3347 21.7225 14.4898 19.0703 12.5734 17.1864C12.5734 17.1864 13.8348 19.0784 14.5181 21.6214C14.5181 21.6255 14.5221 21.6295 14.5221 21.6335C14.5949 21.9044 14.6596 22.1793 14.7162 22.4623C14.7283 22.527 14.7404 22.5917 14.7526 22.6604C14.8051 22.9515 14.8536 23.2426 14.886 23.5418C5.19513 22.3532 3.12921 13.6569 3.35561 10.3781C13.665 10.9482 15.7754 17.8292 16.0827 22.0985C19.4585 11.0412 30.1843 10.4024 31.0697 10.3781C31.4538 18.8763 25.1509 25.5026 17.6149 26.0807C17.6635 25.8503 17.7201 25.6198 17.7767 25.3934C17.7928 25.3247 17.813 25.26 17.8333 25.1913C17.8777 25.0296 17.9222 24.8679 17.9748 24.7061C17.995 24.6374 18.0192 24.5646 18.0394 24.4959C18.096 24.318 18.1567 24.1442 18.2173 23.9663C18.2335 23.9259 18.2456 23.8854 18.2618 23.845C18.3386 23.6348 18.4195 23.4326 18.5003 23.2305C18.5084 23.2143 18.5125 23.1941 18.5205 23.1779C18.5205 23.1779 18.5205 23.1779 18.5246 23.1779C20.4571 18.5043 24.0229 15.4439 24.0229 15.4439C17.0247 19.4868 15.8441 29.9983 15.6582 34.2231C16.1514 34.2676 16.6446 34.2999 17.15 34.2999C26.6225 34.2999 34.3 26.6225 34.3 17.15C34.3 7.67746 26.6225 0 17.15 0Z"
                  fill="#46A358"/>
            <path d="M46.7037 10.7454C48.9718 10.7454 50.8235 11.7197 52.0242 13.4986L49.7764 15.4109C48.9718 14.287 47.9975 13.7048 46.6471 13.7048C44.5691 13.7048 43.2753 15.0713 43.2753 17.1534C43.2753 19.2719 44.6418 20.695 46.8372 20.695C48.0177 20.695 48.9556 20.2826 49.554 19.5912V19.0091H46.6673V16.2356H52.7762V20.133C52.194 21.1639 51.3693 21.9887 50.3019 22.6234C49.2346 23.242 48.0339 23.5614 46.7037 23.5614C42.9923 23.618 39.9237 20.7313 39.9763 17.1534C39.9197 13.5956 42.9923 10.6888 46.7037 10.7454Z"
                  fill="#46A358"/>
            <path d="M61.9576 23.3316L59.168 19.4908H57.8379V23.3316H54.6157V10.9684H59.4672C62.2204 10.9684 64.2459 12.6543 64.2459 15.2215C64.2459 16.7376 63.5141 17.995 62.2972 18.7429L65.5558 23.3316H61.9576ZM57.8338 16.681H59.4833C60.3809 16.681 60.963 16.0988 60.963 15.2215C60.963 14.3442 60.3809 13.7782 59.4833 13.7782H57.8338V16.681Z"
                  fill="#46A358"/>
            <path d="M66.8333 10.9684H75.4124V13.8712H70.0555V15.5773H73.876V18.2739H70.0555V20.4288H75.6388V23.3316H66.8333V10.9684Z"
                  fill="#46A358"/>
            <path d="M77.6441 10.9684H86.2231V13.8712H80.8663V15.5773H84.6868V18.2739H80.8663V20.4288H86.4495V23.3316H77.6441V10.9684Z"
                  fill="#46A358"/>
            <path d="M99.4192 10.9683V23.5579H98.3882L91.681 17.057V23.3315H88.4588V10.7419H89.4897L96.197 17.1499V10.9683H99.4192Z"
                  fill="#46A358"/>
            <path d="M103.264 19.135C103.996 20.1094 104.764 20.7279 106.017 20.7279C106.862 20.7279 107.291 20.4288 107.291 19.8264C107.291 19.2846 107.008 19.1148 106.033 18.6822L104.76 18.1203C102.718 17.2187 101.631 16.0584 101.631 14.3927C101.631 12.2014 103.43 10.7379 105.957 10.7379C107.998 10.7379 109.442 11.7123 110.19 13.2283L108.035 14.8778C107.436 13.9803 106.874 13.5679 105.993 13.5679C105.318 13.5679 104.889 13.8307 104.889 14.3563C104.889 14.8051 105.152 15.0517 105.957 15.367L107.38 15.9654C109.535 16.867 110.545 17.9505 110.545 19.6929C110.545 22.0904 108.576 23.5539 106.009 23.5539C103.782 23.5539 101.982 22.4866 101.081 20.7805L103.264 19.135Z"
                  fill="#46A358"/>
            <path d="M112.393 10.9684H115.615V15.4843H120.131V10.9684H123.353V23.3316H120.131V18.3871H115.615V23.3316H112.393V10.9684Z"
                  fill="#46A358"/>
            <path d="M131.843 10.7419C135.441 10.6651 138.607 13.6084 138.53 17.1499C138.603 20.7279 135.441 23.6145 131.843 23.5579C128.229 23.6145 125.116 20.7279 125.193 17.1499C125.116 13.6084 128.229 10.6692 131.843 10.7419ZM131.859 13.7014C129.874 13.7014 128.488 15.1083 128.488 17.1499C128.488 18.1809 128.807 19.0218 129.426 19.6606C130.044 20.2791 130.869 20.5985 131.859 20.5985C133.772 20.5985 135.231 19.2118 135.231 17.1499C135.235 15.1083 133.772 13.7014 131.859 13.7014Z"
                  fill="#46A358"/>
            <path d="M140.374 10.9684H145.226C147.979 10.9684 150.004 12.6543 150.004 15.2215C150.004 17.7524 147.926 19.4908 145.226 19.4908H143.596V23.3316H140.374V10.9684ZM145.242 16.681C146.139 16.681 146.721 16.0988 146.721 15.2215C146.721 14.3442 146.139 13.7782 145.242 13.7782H143.592V16.681H145.242Z"
                  fill="#46A358"/>
        </g>
        <defs>
            <clipPath id="clip0_1_1069">
                <rect width="150" height="34.2999" fill="white"/>
            </clipPath>
        </defs>
    </symbol>


</svg>

